<svg width="387" height="387" viewBox="0 0 387 387" fill="none" xmlns="http://www.w3.org/2000/svg">
<path d="M42.1945 84.4377C92.6126 65.4284 142.954 46.163 193.321 27C243.073 45.8043 292.85 64.583 342.5 83.6948C290.468 102.115 238.641 121.047 186.66 139.595C183.381 141.261 180.127 139.211 177.078 138.135C132.168 120.125 87.1045 102.473 42.1945 84.4377Z" fill="currentColor"/>
<path d="M0 135.522C7.45512 122.226 14.6284 108.801 22.3141 95.6588C71.6818 115.923 121.459 135.138 170.93 155.095C163.398 167.571 157.275 180.842 149.589 193.216C99.9908 173.361 49.8801 154.736 0 135.522Z" fill="currentColor"/>
<path d="M197.497 154.967C252.987 134.651 308.785 115.104 364.302 94.7878C371.987 108.263 379.366 121.918 387 135.445C333.585 155.787 280.323 176.435 226.958 196.828C217.044 182.943 207.616 168.698 197.497 154.967Z" fill="currentColor"/>
<path d="M24.9016 166.418C65.2259 181.687 105.627 196.7 145.951 211.918C152.049 214.582 160.452 213.583 164.474 207.87C169.726 200.645 174.414 193.062 179.794 185.94C179.819 243.455 179.845 300.969 179.794 358.458C128.044 339.065 76.4982 319.184 24.9016 299.432C24.9016 255.086 24.876 210.765 24.9016 166.418Z" fill="currentColor"/>
<path d="M220.4 217.144C262.825 200.825 305.07 183.993 347.239 167.033C347.495 211.021 347.214 255.009 347.393 298.996C295.976 319.389 244.174 338.86 192.706 359.099C192.731 299.125 192.629 239.125 192.757 179.151C202.134 191.704 209.768 205.615 220.4 217.144Z" fill="currentColor"/>
</svg>
